<svg width="24" height="24" viewBox="0 0 24 24" fill="none" xmlns="http://www.w3.org/2000/svg">
<path fill-rule="evenodd" clip-rule="evenodd" d="M2.5146 18L3.6946 16.818C4.0726 16.44 4.2806 15.938 4.2806 15.404V10.727C4.2806 9.36999 4.8706 8.07299 5.9006 7.17099C6.9386 6.26099 8.2606 5.86099 9.6376 6.04199C11.9646 6.35099 13.7196 8.45499 13.7196 10.937V15.404C13.7196 15.938 13.9276 16.44 14.3046 16.817L15.4856 18H2.5146ZM10.9996 20.341C10.9996 21.24 10.0836 22 8.9996 22C7.9156 22 6.9996 21.24 6.9996 20.341V20H10.9996V20.341ZM17.5206 17.208L15.7196 15.404V10.937C15.7196 7.45599 13.2176 4.49899 9.8996 4.05999C7.9776 3.80399 6.0376 4.39099 4.5826 5.66699C3.1186 6.94899 2.2806 8.79299 2.2806 10.727L2.2796 15.404L0.478603 17.208C0.00960291 17.678 -0.129397 18.377 0.124603 18.99C0.379603 19.604 0.972603 20 1.6366 20H4.9996V20.341C4.9996 22.359 6.7936 24 8.9996 24C11.2056 24 12.9996 22.359 12.9996 20.341V20H16.3626C17.0266 20 17.6186 19.604 17.8726 18.991C18.1276 18.377 17.9896 17.677 17.5206 17.208Z" fill="black"/>
<circle cx="17.5" cy="6.5" r="6.5" fill="#CC1439"/>
<path d="M17.5089 10.0994C17.0212 10.0994 16.5856 10.0154 16.2021 9.8473C15.8209 9.67921 15.5191 9.44602 15.2965 9.14773C15.0763 8.84706 14.958 8.49905 14.9414 8.10369H16.0565C16.0707 8.31913 16.1429 8.50616 16.2731 8.66477C16.4057 8.82102 16.5785 8.94176 16.7915 9.02699C17.0046 9.11222 17.2414 9.15483 17.5018 9.15483C17.7882 9.15483 18.0415 9.10511 18.2617 9.00568C18.4843 8.90625 18.6583 8.76776 18.7837 8.5902C18.9092 8.41027 18.9719 8.20312 18.9719 7.96875C18.9719 7.72491 18.9092 7.51065 18.7837 7.32599C18.6606 7.13897 18.4795 6.99219 18.2404 6.88565C18.0037 6.77912 17.7172 6.72585 17.381 6.72585H16.7667V5.83097H17.381C17.6509 5.83097 17.8877 5.78243 18.0913 5.68537C18.2972 5.5883 18.4582 5.45336 18.5742 5.28054C18.6902 5.10535 18.7482 4.90057 18.7482 4.66619C18.7482 4.44129 18.6973 4.24598 18.5955 4.08026C18.4961 3.91217 18.354 3.78078 18.1694 3.68608C17.9871 3.59138 17.7717 3.54403 17.5231 3.54403C17.2863 3.54403 17.065 3.58783 16.859 3.67543C16.6554 3.76065 16.4897 3.88376 16.3619 4.04474C16.234 4.20336 16.1654 4.39394 16.1559 4.61648H15.0941C15.1059 4.22348 15.2219 3.87784 15.4421 3.57955C15.6647 3.28125 15.9582 3.04806 16.3228 2.87997C16.6874 2.71188 17.0922 2.62784 17.5373 2.62784C18.0037 2.62784 18.4061 2.71899 18.7447 2.90128C19.0856 3.0812 19.3484 3.3215 19.533 3.62216C19.7201 3.92282 19.8124 4.25189 19.81 4.60938C19.8124 5.01657 19.6987 5.36222 19.4691 5.64631C19.2418 5.9304 18.9388 6.12098 18.56 6.21804V6.27486C19.043 6.34825 19.417 6.54001 19.6822 6.85014C19.9497 7.16027 20.0823 7.54498 20.0799 8.00426C20.0823 8.40436 19.971 8.76302 19.7461 9.08026C19.5236 9.39749 19.2193 9.64725 18.8335 9.82955C18.4476 10.0095 18.006 10.0994 17.5089 10.0994Z" fill="white"/>
</svg>
